{
    "asset" : {
        "generator" : "Khronos glTF Blender I/O v3.2.43",
        "version" : "2.0"
    },
    "scene" : 0,
    "scenes" : [
        {
            "name" : "Scene",
            "nodes" : [
                0
            ]
        }
    ],
    "nodes" : [
        {
            "mesh" : 0,
            "name" : "Montaj1",
            "scale" : [
                0.09190457314252853,
                0.09190457314252853,
                0.09190457314252853
            ],
            "translation" : [
                -4.266793251037598,
                -0.3585165739059448,
                5.41770076751709
            ]
        }
    ],
    "meshes" : [
        {
            "name" : "Montaj1",
            "primitives" : [
                {
                    "attributes" : {
                        "POSITION" : 0,
                        "NORMAL" : 1
                    },
                    "indices" : 2
                }
            ]
        }
    ],
    "accessors" : [
        {
            "bufferView" : 0,
            "componentType" : 5126,
            "count" : 54520,
            "max" : [
                83.96515655517578,
                86.61691284179688,
                -13.539340019226074
            ],
            "min" : [
                13.965153694152832,
                0.8685344457626343,
                -87.28376770019531
            ],
            "type" : "VEC3"
        },
        {
            "bufferView" : 1,
            "componentType" : 5126,
            "count" : 54520,
            "type" : "VEC3"
        },
        {
            "bufferView" : 2,
            "componentType" : 5123,
            "count" : 55650,
            "type" : "SCALAR"
        }
    ],
    "bufferViews" : [
        {
            "buffer" : 0,
            "byteLength" : 654240,
            "byteOffset" : 0
        },
        {
            "buffer" : 0,
            "byteLength" : 654240,
            "byteOffset" : 654240
        },
        {
            "buffer" : 0,
            "byteLength" : 111300,
            "byteOffset" : 1308480
        }
    ],
    "buffers" : [
        {
            "byteLength" : 1419780,
            "uri" : "data:application/octet-stream;base64,"
        }
    ]
}
